<svg width="923" height="1222" viewBox="0 0 923 1222" fill="none" xmlns="http://www.w3.org/2000/svg">
<path d="M0.63623 364.483H922.898V1091.47C922.898 1163.26 864.695 1221.47 792.898 1221.47H130.636C58.8393 1221.47 0.63623 1163.26 0.63623 1091.47V364.483Z" fill="#ECEED6"/>
<path d="M922.898 364.483L0.636216 364.483V278.08C0.636216 199.656 64.2118 136.08 142.636 136.08L780.898 136.08C859.323 136.08 922.898 199.656 922.898 278.08V364.483Z" fill="#D94646"/>
<ellipse cx="676.571" cy="231.329" rx="68.3678" ry="64" fill="#A23232"/>
<ellipse cx="246.963" cy="231.329" rx="68.3678" ry="64" fill="#A13232"/>
<rect x="200.832" y="0.000732422" width="92.2634" height="272.159" rx="46.1317" fill="#999999"/>
<rect x="630.44" y="0.000732422" width="92.2634" height="272.159" rx="46.1317" fill="#999999"/>
<path d="M630.44 46.1325C630.44 20.6546 651.094 0.000732422 676.571 0.000732422V0.000732422C702.049 0.000732422 722.703 20.6546 722.703 46.1324V179.196H630.44V46.1325Z" fill="#BBBBBB"/>
<path d="M200.832 46.1325C200.832 20.6546 221.485 0.000732422 246.963 0.000732422V0.000732422C272.441 0.000732422 293.095 20.6546 293.095 46.1324V179.196H200.832V46.1325Z" fill="#BBBBBB"/>
<rect x="58.8149" y="491.981" width="234.28" height="234.28" fill="#D2D4B0"/>
<rect x="58.8149" y="792.974" width="234.28" height="234.28" fill="#D2D4B0"/>
<rect x="344.627" y="491.981" width="234.28" height="234.28" fill="#D2D4B0"/>
<rect x="344.628" y="792.974" width="234.28" height="234.28" fill="#D2D4B0"/>
<rect x="630.44" y="491.981" width="234.28" height="234.28" fill="#D2D4B0"/>
</svg>
